:SAMPLES-PER-SECOND 30
:FULLY-SPECIFIED
:DEGREES
192
root  86.1227 38.772 -30.5684 25.6644 -81.2887 -18.031
RightUpLeg  -13.969 -26.6581 6.25925
RightLeg  24.8245 -5.8132 -3.16008
RightFoot  -18.3357 -0.243653 -1.94082
RightToes  0.000482159 0.542163 -0.142577
Spine  42.0389 -0.519691 5.68673
Spine1  13.684 3.8278 -8.12083
HEad  -6.28608 0.587214 -0.321906
LeftShoulder1  7.52211 -15.6978 -33.1203
LeftArm  -6.95393 -39.5195 -39.5384
LeftForeArm  17.5863 -27.0901 -4.88504
LeftHand  -0.25398 0.0180481 5.50724
RightShoulder  6.13392 13.485 30.1247
RightArm  -7.02585 33.8337 38.7449
RightForeArm  -8.17756 25.1287 5.7951
RightHand  -0.369989 7.02495 -3.90636
LeftUpLeg  -27.1202 6.33806 2.6246
LeftLeg  -1.1726 19.3899 -8.97517
LeftFoot  12.2114 1.17645 -6.02153
LeftToes  1.06247e-005 4.65854e-005 -8.18501e-006
193
root  87.1862 38.9213 -30.5599 28.1045 -82.6751 -18.3107
RightUpLeg  -18.4789 -26.1022 7.39662
RightLeg  24.4846 -4.39134 -2.43247
RightFoot  -16.3069 -0.21063 -2.34612
RightToes  0.000482159 0.542163 -0.142577
Spine  43.6133 0.113309 4.61669
Spine1  12.845 3.79831 -7.213
HEad  -9.4091 0.254815 -0.27191
LeftShoulder1  7.75841 -16.1446 -33.4274
LeftArm  -7.89442 -40.8548 -38.6396
LeftForeArm  17.4844 -27.1334 -4.90046
LeftHand  -0.25398 0.0180481 5.50724
RightShoulder  6.40701 13.9171 30.8017
RightArm  -8.42033 35.8449 36.584
RightForeArm  -6.9996 25.0304 5.71532
RightHand  -0.325368 7.33041 -3.42146
LeftUpLeg  -31.1788 8.37796 0.846083
LeftLeg  3.85006 11.6512 -6.28398
LeftFoot  11.2416 1.51421 -7.91471
LeftToes  1.06247e-005 4.65854e-005 -8.18501e-006
194
root  88.1412 39.1359 -30.5101 27.5071 -83.0897 -16.7804
RightUpLeg  -20.6077 -25.9047 8.0301
RightLeg  22.6804 -4.30374 -2.09207
RightFoot  -13.9277 -0.170757 -3.4316
RightToes  0.000482159 0.542163 -0.142577
Spine  46.8954 0.100261 4.29236
Spine1  11.7155 3.4878 -6.51312
HEad  -12.924 -0.411403 0.132999
LeftShoulder1  8.09538 -16.9613 -33.4887
LeftArm  -8.31938 -42.5952 -37.594
LeftForeArm  16.5568 -26.8813 -4.89432
LeftHand  -0.25398 0.0180481 5.50724
RightShoulder  6.65664 14.4064 31.197
RightArm  -10.7611 37.4293 34.0902
RightForeArm  -6.60196 25.1463 5.72214
RightHand  -0.365259 7.75296 -3.68635
LeftUpLeg  -34.5856 13.1013 -3.89569
LeftLeg  11.8213 -0.385628 -2.60617
LeftFoot  8.04956 0.88477 -5.38642
LeftToes  1.06247e-005 4.65854e-005 -8.18501e-006
195
root  89.0048 39.3365 -30.3727 23.1806 -82.6284 -11.696
RightUpLeg  -21.8745 -25.2206 7.59135
RightLeg  20.7861 -5.82226 -1.56096
RightFoot  -11.5904 -0.089055 -4.26835
RightToes  0.000482159 0.542163 -0.142577
Spine  50.0414 -0.599857 4.87304
Spine1  11.1746 2.86866 -5.8815
HEad  -16.5583 -1.55937 0.646316
LeftShoulder1  8.32587 -17.8423 -32.9365
LeftArm  -7.88729 -45.1664 -37.5805
LeftForeArm  15.0739 -25.7835 -4.73057
LeftHand  -0.25398 0.0180481 5.50724
RightShoulder  6.50092 14.4691 30.1717
RightArm  -13.2072 39.2316 32.3673
RightForeArm  -7.38429 24.6473 5.64497
RightHand  -0.426025 8.08802 -4.13877
LeftUpLeg  -35.9854 13.5284 -5.7815
LeftLeg  18.636 -2.29428 -0.121837
LeftFoot  4.00941 0.0737175 -0.71987
LeftToes  1.06247e-005 4.65854e-005 -8.18501e-006
196
root  89.7847 39.4887 -30.1531 20.1724 -81.973 -7.14555
RightUpLeg  -23.6078 -23.3907 6.43408
RightLeg  19.1719 -8.41575 -0.449803
RightFoot  -9.4684 0.00452143 -4.23502
RightToes  0.000482159 0.542163 -0.142577
Spine  51.9294 -1.60132 6.08544
Spine1  11.4652 2.47849 -5.69071
HEad  -20.0386 -3.041 1.19113
LeftShoulder1  8.26614 -18.5998 -31.3071
LeftArm  -7.03938 -48.1263 -39.4528
LeftForeArm  14.0471 -24.1724 -4.43657
LeftHand  -0.25398 0.0180481 5.50724
RightShoulder  6.04834 13.9118 28.7229
RightArm  -15.3092 41.5473 30.5967
RightForeArm  -8.44284 23.6637 5.48488
RightHand  -0.396386 8.47224 -3.79943
LeftUpLeg  -36.3346 11.4734 -4.83503
LeftLeg  23.9025 4.82747 2.66067
LeftFoot  1.23158 -0.333977 2.89849
LeftToes  1.06247e-005 4.65854e-005 -8.18501e-006
197
root  90.4601 39.5553 -29.8811 22.742 -82.0782 -7.48355
RightUpLeg  -26.2164 -21.0962 5.93212
RightLeg  17.7356 -10.4507 0.546404
RightFoot  -7.54994 0.0882188 -4.17791
RightToes  0.000482159 0.542163 -0.142577
Spine  53.0088 -2.15471 7.16169
Spine1  11.2313 2.53979 -5.57118
HEad  -22.7184 -4.21684 1.29672
LeftShoulder1  8.636 -19.4529 -31.5201
LeftArm  -6.14562 -50.2538 -39.5544
LeftForeArm  12.9002 -23.1548 -4.30874
LeftHand  -0.25398 0.0180481 5.50724
RightShoulder  6.18154 13.7516 29.8384
RightArm  -16.4628 44.13 25.6077
RightForeArm  -10.0999 22.3804 5.45555
RightHand  -0.253239 8.85027 -2.55417
LeftUpLeg  -36.3758 12.1154 -4.82186
LeftLeg  26.8027 8.58488 4.97765
LeftFoot  -0.217323 -0.317534 3.23912
LeftToes  1.06247e-005 4.65854e-005 -8.18501e-006
198
root  91.0317 39.5328 -29.5728 27.0843 -83.1032 -9.14413
RightUpLeg  -30.0549 -19.8907 6.6139
RightLeg  17.1183 -10.245 0.708681
RightFoot  -5.87522 0.18349 -4.66248
RightToes  0.000482159 0.542163 -0.142577
Spine  53.7016 -2.07171 7.44753
Spine1  11.0257 2.9351 -5.48726
HEad  -25.2803 -5.04561 1.08738
LeftShoulder1  9.01573 -20.214 -31.9058
LeftArm  -6.0432 -52.0255 -38.9672
LeftForeArm  11.828 -22.7629 -4.33691
LeftHand  -0.25398 0.0180481 5.50724
RightShoulder  6.56409 13.6315 32.344
RightArm  -18.038 47.5279 18.8982
RightForeArm  -11.6795 20.5839 5.7216
RightHand  -0.0903458 9.14179 -1.22473
LeftUpLeg  -35.55 13.7413 -5.59392
LeftLeg  25.206 6.85792 3.92019
LeftFoot  -1.96388 -0.125466 1.66483
LeftToes  1.06247e-005 4.65854e-005 -8.18501e-006
199
root  91.5617 39.4776 -29.2589 25.6665 -84.1999 -4.73418
RightUpLeg  -34.9695 -20.2391 7.96554
RightLeg  17.3364 -8.24112 -0.121333
RightFoot  -4.54547 0.257497 -4.86348
RightToes  0.000482159 0.542163 -0.142577
Spine  54.4341 -1.68033 6.94145
Spine1  11.1476 3.33824 -5.10475
HEad  -28.0134 -6.09925 0.750188
LeftShoulder1  9.386 -21.1803 -31.9017
LeftArm  -6.50502 -53.9701 -38.644
LeftForeArm  11.051 -22.4168 -4.37048
LeftHand  -0.25398 0.0180481 5.50724
RightShoulder  6.72054 13.64 33.2365
RightArm  -21.966 50.0091 12.9113
RightForeArm  -12.104 18.9283 6.10794
RightHand  -0.0104038 9.52765 -0.593685
LeftUpLeg  -35.197 15.473 -8.0078
LeftLeg  19.9371 2.52564 1.18087
LeftFoot  -3.39084 -0.0465239 0.994501
LeftToes  1.06247e-005 4.65854e-005 -8.18501e-006
